<svg width="167" height="37" viewBox="0 0 167 37" fill="none" xmlns="http://www.w3.org/2000/svg">
<path d="M18.7 36.35C15.4 36.35 12.3667 35.5833 9.6 34.05C6.86667 32.5167 4.68333 30.3833 3.05 27.65C1.45 24.8833 0.65 21.7833 0.65 18.35C0.65 14.9167 1.45 11.8333 3.05 9.1C4.68333 6.36667 6.86667 4.23333 9.6 2.7C12.3667 1.16667 15.4 0.399999 18.7 0.399999C22 0.399999 25.0167 1.16667 27.75 2.7C30.5167 4.23333 32.6833 6.36667 34.25 9.1C35.85 11.8333 36.65 14.9167 36.65 18.35C36.65 21.7833 35.85 24.8833 34.25 27.65C32.65 30.3833 30.4833 32.5167 27.75 34.05C25.0167 35.5833 22 36.35 18.7 36.35ZM18.7 28.55C21.5 28.55 23.7333 27.6167 25.4 25.75C27.1 23.8833 27.95 21.4167 27.95 18.35C27.95 15.25 27.1 12.7833 25.4 10.95C23.7333 9.08333 21.5 8.15 18.7 8.15C15.8667 8.15 13.6 9.06666 11.9 10.9C10.2333 12.7333 9.4 15.2167 9.4 18.35C9.4 21.45 10.2333 23.9333 11.9 25.8C13.6 27.6333 15.8667 28.55 18.7 28.55ZM59.3066 36L52.0066 22.75H49.9566V36H41.4066V0.899999H55.7566C58.5233 0.899999 60.8733 1.38333 62.8066 2.35C64.7733 3.31666 66.24 4.65 67.2066 6.35C68.1733 8.01666 68.6566 9.88333 68.6566 11.95C68.6566 14.2833 67.99 16.3667 66.6566 18.2C65.3566 20.0333 63.4233 21.3333 60.8566 22.1L68.9566 36H59.3066ZM49.9566 16.7H55.2566C56.8233 16.7 57.99 16.3167 58.7566 15.55C59.5566 14.7833 59.9566 13.7 59.9566 12.3C59.9566 10.9667 59.5566 9.91667 58.7566 9.15C57.99 8.38333 56.8233 8 55.2566 8H49.9566V16.7ZM82.5738 0.899999V36H74.0238V0.899999H82.5738ZM117.17 11.25C116.17 8.95 114.637 7.15 112.57 5.85C110.537 4.51667 108.137 3.85 105.37 3.85C102.77 3.85 100.437 4.45 98.3699 5.65C96.3033 6.85 94.6699 8.56667 93.4699 10.8C92.2699 13 91.6699 15.5667 91.6699 18.5C91.6699 21.4333 92.2699 24.0167 93.4699 26.25C94.6699 28.4833 96.3033 30.2 98.3699 31.4C100.437 32.6 102.77 33.2 105.37 33.2C107.803 33.2 109.987 32.6833 111.92 31.65C113.887 30.5833 115.453 29.0833 116.62 27.15C117.82 25.1833 118.503 22.9 118.67 20.3H103.97V17.45H122.37V20C122.203 23.0667 121.37 25.85 119.87 28.35C118.37 30.8167 116.353 32.7667 113.82 34.2C111.32 35.6333 108.503 36.35 105.37 36.35C102.137 36.35 99.2033 35.6 96.5699 34.1C93.9366 32.5667 91.8533 30.45 90.3199 27.75C88.8199 25.0167 88.0699 21.9333 88.0699 18.5C88.0699 15.0667 88.8199 12 90.3199 9.3C91.8533 6.56666 93.9366 4.45 96.5699 2.95C99.2033 1.41667 102.137 0.649999 105.37 0.649999C109.103 0.649999 112.37 1.58333 115.17 3.45C117.97 5.31667 120.003 7.91667 121.27 11.25H117.17ZM132.281 1.05V36H128.781V1.05H132.281ZM166.557 36H163.057L143.707 6.6V36H140.207V1.05H143.707L163.057 30.4V1.05H166.557V36Z" fill="#E4E4E4"/>
</svg>
